Ground reaction force (.MOT) by Lee-Son Toolkit																		
nRows=96																		
nColumns=19																		
																		
name T_01_fixed_grf.mot																		
datacolumns 19																		
datarows 96																		
range 7.5 7.595																		
endheader																		
time	1_ground_force_vx	1_ground_force_vy	1_ground_force_vz	1_ground_force_px	1_ground_force_py	1_ground_force_pz	2_ground_force_vx	2_ground_force_vy	2_ground_force_vz	2_ground_force_px	2_ground_force_py	2_ground_force_pz	1_ground_torque_x	1_ground_torque_y	1_ground_torque_z	2_ground_torque_x	2_ground_torque_y	2_ground_torque_z
7.5	0	0	0	0	0	0	6.99265	-32.6722	-9.37912	0.0936067	0	0.120492	0	0	0	0	-3.54212	0
7.501	0	0	0	0	0	0	6.86283	-32.6673	-9.06759	0.0973341	0	0.118951	0	0	0	0	-3.49737	0
7.502	0	0	0	0	0	0	6.94905	-32.8432	-9.2013	0.0943463	0	0.12144	0	0	0	0	-3.51122	0
7.503	0	0	0	0	0	0	6.95141	-31.8032	-9.19735	0.0986479	0	0.12357	0	0	0	0	-3.56649	0
7.504	0	0	0	0	0	0	7.08259	-32.4999	-9.33146	0.09578	0	0.122303	0	0	0	0	-3.55754	0
7.505	0	0	0	0	0	0	6.99546	-32.3254	-9.25134	0.0963628	0	0.119188	0	0	0	0	-3.54874	0
7.506	0	0	0	0	0	0	6.94665	-33.534	-9.16115	0.0895567	0	0.114194	0	0	0	0	-3.47237	0
7.507	0	0	0	0	0	0	6.99706	-32.1523	-9.24087	0.100515	0	0.12354	0	0	0	0	-3.55724	0
7.508	0	0	0	0	0	0	6.95224	-32.3236	-9.15582	0.098841	0	0.120937	0	0	0	0	-3.53447	0
7.509	0	0	0	0	0	0	6.9488	-33.0165	-9.20168	0.0938532	0	0.120805	0	0	0	0	-3.50235	0
7.51	0	0	0	0	0	0	7.03809	-31.9771	-9.19892	0.0955823	0	0.12471	0	0	0	0	-3.56773	0
7.511	0	0	0	0	0	0	7.16952	-32.3253	-9.20532	0.091983	0	0.122126	0	0	0	0	-3.56538	0
7.512	0	0	0	0	0	0	6.99309	-32.8425	-9.116	0.093107	0	0.120715	0	0	0	0	-3.50847	0
7.513	0	0	0	0	0	0	6.99416	-32.4976	-9.24653	0.0952905	0	0.120374	0	0	0	0	-3.53896	0
7.514	0	0	0	0	0	0	6.90552	-32.6696	-9.20183	0.095484	0	0.121486	0	0	0	0	-3.51507	0
7.515	0	0	0	0	0	0	7.12662	-33.0177	-9.11776	0.0930393	0	0.117714	0	0	0	0	-3.51547	0
7.516	0	0	0	0	0	0	6.86035	-33.1875	-9.15568	0.0940823	0	0.118371	0	0	0	0	-3.47898	0
7.517	0	0	0	0	0	0	7.03857	-32.4972	-9.15764	0.0952352	0	0.121467	0	0	0	0	-3.53587	0
7.518	0	0	0	0	0	0	7.03772	-32.8467	-9.37724	0.0948208	0	0.121069	0	0	0	0	-3.53817	0
7.519	0	0	0	0	0	0	6.94964	-32.8413	-9.0669	0.0949503	0	0.121288	0	0	0	0	-3.49875	0
7.52	0	0	0	0	0	0	6.9048	-32.4955	-9.20325	0.0942178	0	0.120308	0	0	0	0	-3.52422	0
7.521	0	0	0	0	0	0	6.90652	-32.3224	-9.15589	0.0971101	0	0.122133	0	0	0	0	-3.52903	0
7.522	0	0	0	0	0	0	6.81707	-31.8035	-9.33426	0.0969631	0	0.124939	0	0	0	0	-3.5633	0
7.523	0	0	0	0	0	0	6.63979	-31.9703	-9.06628	0.0967064	0	0.123946	0	0	0	0	-3.50661	0
7.524	0	0	0	0	0	0	6.81882	-32.3205	-9.06968	0.0978145	0	0.120207	0	0	0	0	-3.51029	0
7.525	0	0	0	0	0	0	7.08175	-32.4978	-9.20082	0.0939976	0	0.122718	0	0	0	0	-3.54514	0
7.526	0	0	0	0	0	0	6.77225	-32.1461	-9.11019	0.0960089	0	0.125158	0	0	0	0	-3.51771	0
7.527	0	0	0	0	0	0	6.90679	-32.4954	-9.11499	0.0965847	0	0.119614	0	0	0	0	-3.51607	0
7.528	0	0	0	0	0	0	6.99587	-31.6332	-9.33576	0.0984695	0	0.123766	0	0	0	0	-3.59493	0
7.529	0	0	0	0	0	0	6.72731	-31.7999	-9.2448	0.0952894	0	0.123591	0	0	0	0	-3.54378	0
7.53	0	0	0	0	0	0	6.81726	-32.3209	-9.15489	0.0966341	0	0.122739	0	0	0	0	-3.51824	0
7.531	0	0	0	0	0	0	6.86107	-32.4958	-9.2459	0.095464	0	0.120379	0	0	0	0	-3.52302	0
7.532	0	0	0	0	0	0	6.81709	-32.3167	-8.89282	0.0948574	0	0.119964	0	0	0	0	-3.49336	0
7.533	0	0	0	0	0	0	6.68266	-31.6264	-9.24831	0.0946197	0	0.12486	0	0	0	0	-3.54807	0
7.534	0	0	0	0	0	0	6.90466	-32.1482	-9.15706	0.0946298	0	0.123976	0	0	0	0	-3.5382	0
7.535	0	0	0	0	0	0	6.90392	-33.0146	-9.19877	0.0933607	0	0.119038	0	0	0	0	-3.49689	0
7.536	0	0	0	0	0	0	6.81677	-32.8401	-9.11541	0.0945194	0	0.117756	0	0	0	0	-3.48759	0
7.537	0	0	0	0	0	0	6.81586	-32.493	-9.11505	0.093739	0	0.120796	0	0	0	0	-3.50528	0
7.538	0	0	0	0	0	0	7.03802	-32.495	-9.02555	0.0940539	0	0.121892	0	0	0	0	-3.52337	0
7.539	0	0	0	0	0	0	6.94932	-32.3238	-9.29164	0.0946645	0	0.11985	0	0	0	0	-3.54714	0
7.54	0	0	0	0	0	0	6.9493	-32.3234	-9.24722	0.094661	0	0.121005	0	0	0	0	-3.54291	0
7.541	0	0	0	0	0	0	6.90662	-32.8417	-9.07043	0.0961572	0	0.1195	0	0	0	0	-3.49397	0
7.542	0	0	0	0	0	0	6.81633	-32.3189	-9.06759	0.0948538	0	0.122006	0	0	0	0	-3.50989	0
7.543	0	0	0	0	0	0	7.08207	-32.6706	-9.1598	0.093496	0	0.119612	0	0	0	0	-3.53219	0
7.544	0	0	0	0	0	0	6.90347	-33.0123	-9.06965	0.0916121	0	0.116482	0	0	0	0	-3.48487	0
7.545	0	0	0	0	0	0	6.77288	-32.8416	-9.28729	0.0963596	0	0.117412	0	0	0	0	-3.49849	0
7.546	0	0	0	0	0	0	6.99491	-32.4974	-9.20662	0.0952775	0	0.117297	0	0	0	0	-3.5353	0
7.547	0	0	0	0	0	0	6.99443	-32.4963	-9.15222	0.0965028	0	0.123301	0	0	0	0	-3.53013	0
7.548	0	0	0	0	0	0	6.99392	-32.3225	-9.15836	0.0946197	0	0.119686	0	0	0	0	-3.53986	0
7.549	0	0	0	0	0	0	6.85955	-33.0151	-9.24444	0.0933991	0	0.119679	0	0	0	0	-3.49591	0
7.55	0	0	0	0	0	0	6.99572	-32.149	-9.07021	0.0969161	0	0.120229	0	0	0	0	-3.54089	0
7.551	0	0	0	0	0	0	6.77285	-32.4954	-9.29062	0.0961674	0	0.119236	0	0	0	0	-3.51671	0
7.552	0	0	0	0	0	0	6.86039	-32.3179	-8.9815	0.0936079	0	0.120064	0	0	0	0	-3.50704	0
7.553	0	0	0	0	0	0	7.12524	-33.1875	-8.97958	0.0914479	0	0.117542	0	0	0	0	-3.49379	0
7.554	0	0	0	0	0	0	6.9056	-33.1891	-9.19743	0.0957735	0	0.119035	0	0	0	0	-3.48816	0
7.555	0	0	0	0	0	0	6.77077	-32.4943	-9.28882	0.0938067	0	0.12163	0	0	0	0	-3.51635	0
7.556	0	0	0	0	0	0	7.03705	-32.3214	-9.07016	0.0927753	0	0.121373	0	0	0	0	-3.5367	0
7.557	0	0	0	0	0	0	6.72864	-32.1442	-9.02419	0.0960732	0	0.121393	0	0	0	0	-3.50427	0
7.558	0	0	0	0	0	0	7.0819	-32.3264	-9.37798	0.0945033	0	0.12057	0	0	0	0	-3.5713	0
7.559	0	0	0	0	0	0	6.90439	-33.19	-9.33207	0.0940329	0	0.116822	0	0	0	0	-3.50052	0
7.56	0	0	0	0	0	0	7.08183	-33.0175	-9.203	0.0931181	0	0.117243	0	0	0	0	-3.51822	0
7.561	0	0	0	0	0	0	6.68391	-32.3189	-9.15558	0.0962087	0	0.12213	0	0	0	0	-3.50232	0
7.562	0	0	0	0	0	0	6.86429	-31.8027	-9.15814	0.0999421	0	0.121663	0	0	0	0	-3.55206	0
7.563	0	0	0	0	0	0	7.03995	-32.4972	-9.11281	0.0970159	0	0.120827	0	0	0	0	-3.53182	0
7.564	0	0	0	0	0	0	6.86142	-33.0167	-9.28673	0.0963154	0	0.119762	0	0	0	0	-3.50002	0
7.565	0	0	0	0	0	0	7.12563	-33.0178	-9.20532	0.0918908	0	0.116041	0	0	0	0	-3.52361	0
7.566	0	0	0	0	0	0	7.03687	-33.1877	-9.0248	0.0921187	0	0.118775	0	0	0	0	-3.48761	0
7.567	0	0	0	0	0	0	6.95025	-32.4953	-9.11164	0.0959538	0	0.121425	0	0	0	0	-3.52103	0
7.568	0	0	0	0	0	0	6.949	-32.8415	-9.15677	0.0937887	0	0.117814	0	0	0	0	-3.50718	0
7.569	0	0	0	0	0	0	6.90474	-32.4955	-9.24325	0.0948384	0	0.120384	0	0	0	0	-3.52807	0
7.57	0	0	0	0	0	0	6.81687	-32.6681	-9.20116	0.0956081	0	0.120295	0	0	0	0	-3.50455	0
7.571	0	0	0	0	0	0	6.94777	-33.1884	-9.20068	0.0922346	0	0.117819	0	0	0	0	-3.49348	0
7.572	0	0	0	0	0	0	7.0818	-32.1511	-9.20646	0.0931854	0	0.12096	0	0	0	0	-3.56436	0
7.573	0	0	0	0	0	0	6.95099	-32.4968	-9.2	0.097137	0	0.120342	0	0	0	0	-3.52945	0
7.574	0	0	0	0	0	0	7.12793	-32.4991	-9.20348	0.0957125	0	0.119114	0	0	0	0	-3.55093	0
7.575	0	0	0	0	0	0	6.90438	-32.3208	-9.15545	0.0941512	0	0.121508	0	0	0	0	-3.52887	0
7.576	0	0	0	0	0	0	7.04006	-31.8054	-9.2027	0.09788	0	0.12477	0	0	0	0	-3.57785	0
7.577	0	0	0	0	0	0	6.90498	-32.4964	-9.28714	0.0954251	0	0.121045	0	0	0	0	-3.53224	0
7.578	0	0	0	0	0	0	6.99495	-32.1474	-8.98453	0.0951135	0	0.119486	0	0	0	0	-3.53267	0
7.579	0	0	0	0	0	0	6.85895	-32.4945	-9.20303	0.0924909	0	0.122701	0	0	0	0	-3.5188	0
7.58	0	0	0	0	0	0	6.99678	-31.6304	-9.11416	0.0990917	0	0.123491	0	0	0	0	-3.57359	0
7.581	0	0	0	0	0	0	6.68267	-33.1857	-9.24502	0.093731	0	0.115532	0	0	0	0	-3.46655	0
7.582	0	0	0	0	0	0	6.86234	-32.8399	-9.06784	0.0962542	0	0.115942	0	0	0	0	-3.48859	0
7.583	0	0	0	0	0	0	6.95041	-32.1499	-9.15832	0.0963524	0	0.123983	0	0	0	0	-3.54384	0
7.584	0	0	0	0	0	0	6.99543	-32.3244	-9.24276	0.0976089	0	0.120439	0	0	0	0	-3.54805	0
7.585	0	0	0	0	0	0	7.21585	-32.8465	-9.19887	0.0952064	0	0.120263	0	0	0	0	-3.54264	0
7.586	0	0	0	0	0	0	6.81739	-32.8396	-9.11173	0.0957227	0	0.116589	0	0	0	0	-3.4874	0
7.587	0	0	0	0	0	0	7.21744	-32.4995	-9.11352	0.0967892	0	0.120219	0	0	0	0	-3.55313	0
7.588	0	0	0	0	0	0	6.99242	-33.0181	-9.33334	0.0932254	0	0.119782	0	0	0	0	-3.51984	0
7.589	0	0	0	0	0	0	6.77387	-32.494	-9.15383	0.0979621	0	0.121505	0	0	0	0	-3.50393	0
7.59	0	0	0	0	0	0	6.94906	-32.4945	-9.06898	0.0941628	0	0.123154	0	0	0	0	-3.51689	0
7.591	0	0	0	0	0	0	7.03641	-33.8823	-9.15374	0.0919763	0	0.115968	0	0	0	0	-3.46513	0
7.592	0	0	0	0	0	0	6.94958	-32.4965	-9.24094	0.0959694	0	0.122204	0	0	0	0	-3.53321	0
7.593	0	0	0	0	0	0	6.9501	-32.149	-9.15442	0.0963868	0	0.123391	0	0	0	0	-3.54349	0
7.594	0	0	0	0	0	0	6.63869	-32.4931	-9.28626	0.095758	0	0.122858	0	0	0	0	-3.50033	0
7.595	0	0	0	0	0	0	6.90346	-32.6702	-9.3341	0.0931326	0	0.121634	0	0	0	0	-3.5274	0
